HIERARCHY
ROOT Hips
{
	OFFSET 0.000000 0.000000 0.000000
	CHANNELS 6 Xposition Yposition Zposition Xrotation Yrotation Zrotation
	JOINT LeftUpLeg_virtual
	{
		OFFSET 0.000000 0.000000 0.000000
		CHANNELS 3 Xrotation Yrotation Zrotation
		JOINT LeftUpLeg
		{
			OFFSET 11.394100 -6.187798 -0.413800
			CHANNELS 3 Xrotation Yrotation Zrotation
			JOINT LeftLeg
			{
				OFFSET 0.430247 -32.302673 3.732800
				CHANNELS 3 Xrotation Yrotation Zrotation
				JOINT LeftFoot
				{
					OFFSET -0.430247 -48.264931 -6.423300
					CHANNELS 3 Xrotation Yrotation Zrotation
					JOINT LeftToeBase
					{
						OFFSET 4.230900 -16.068199 23.438400
						CHANNELS 3 Xrotation Yrotation Zrotation
						JOINT LeftToe_End
						{
							OFFSET 4.510700 0.695400 19.974600
							CHANNELS 3 Xrotation Yrotation Zrotation
							End Site
							{
								OFFSET 0 0 0
							}
						}
					}
				}
			}
		}
	}
	JOINT RightUpLeg_virtual
	{
		OFFSET 0.000000 0.000000 0.000000
		CHANNELS 3 Xrotation Yrotation Zrotation
		JOINT RightUpLeg
		{
			OFFSET -11.333700 -6.187798 -0.413800
			CHANNELS 3 Xrotation Yrotation Zrotation
			JOINT RightLeg
			{
				OFFSET -0.430392 -32.302628 3.733000
				CHANNELS 3 Xrotation Yrotation Zrotation
				JOINT RightFoot
				{
					OFFSET 0.430392 -48.264973 -6.423500
					CHANNELS 3 Xrotation Yrotation Zrotation
					JOINT RightToeBase
					{
						OFFSET -4.230900 -16.068199 23.438400
						CHANNELS 3 Xrotation Yrotation Zrotation
						JOINT RightToe_End
						{
							OFFSET -4.510700 0.695400 19.974600
							CHANNELS 3 Xrotation Yrotation Zrotation
							End Site
							{
								OFFSET 0 0 0
							}
						}
					}
				}
			}
		}
	}
	JOINT Spine_virtual
	{
		OFFSET 0.000000 0.000000 0.000000
		CHANNELS 3 Xrotation Yrotation Zrotation
		JOINT Spine
		{
			OFFSET -0.002400 12.777504 0.315300
			CHANNELS 3 Xrotation Yrotation Zrotation
			JOINT Spine1
			{
				OFFSET -0.002067 5.816869 0.032633
				CHANNELS 3 Xrotation Yrotation Zrotation
				JOINT Spine1_split
				{
					OFFSET -0.002067 5.816869 0.032633
					CHANNELS 3 Xrotation Yrotation Zrotation
					JOINT Spine2
					{
						OFFSET -0.002067 5.816869 0.032633
						CHANNELS 3 Xrotation Yrotation Zrotation
						JOINT Neck_virtual
						{
							OFFSET 0.000000 0.000000 0.000000
							CHANNELS 3 Xrotation Yrotation Zrotation
							JOINT Neck
							{
								OFFSET -0.003700 21.199493 -0.826900
								CHANNELS 3 Xrotation Yrotation Zrotation
								JOINT Head
								{
									OFFSET 0.000000 20.442200 4.834800
									CHANNELS 3 Xrotation Yrotation Zrotation
									JOINT HeadTop_End
									{
										OFFSET 0.000000 34.668396 4.968400
										CHANNELS 3 Xrotation Yrotation Zrotation
										End Site
										{
											OFFSET 0 0 0
										}
									}
								}
							}
						}
						JOINT LeftShoulder_virtual
						{
							OFFSET 0.000000 0.000000 0.000000
							CHANNELS 3 Xrotation Yrotation Zrotation
							JOINT LeftShoulder
							{
								OFFSET 3.288150 8.794197 -1.372250
								CHANNELS 3 Xrotation Yrotation Zrotation
								JOINT LeftShoulder_split
								{
									OFFSET 3.288150 8.794197 -1.372250
									CHANNELS 3 Xrotation Yrotation Zrotation
									JOINT LeftArm
									{
										OFFSET 11.953299 -2.279007 -0.146200
										CHANNELS 3 Xrotation Yrotation Zrotation
										JOINT LeftForeArm
										{
											OFFSET 18.448900 0.000000 0.000000
											CHANNELS 3 Xrotation Yrotation Zrotation
											JOINT LeftHand
											{
												OFFSET 29.527798 0.000000 0.000000
												CHANNELS 3 Xrotation Yrotation Zrotation
												End Site
												{
													OFFSET 0 0 0
												}
											}
										}
									}
								}
							}
						}
						JOINT RightShoulder_virtual
						{
							OFFSET 0.000000 0.000000 0.000000
							CHANNELS 3 Xrotation Yrotation Zrotation
							JOINT RightShoulder
							{
								OFFSET -3.249400 8.794197 -1.372250
								CHANNELS 3 Xrotation Yrotation Zrotation
								JOINT RightShoulder_split
								{
									OFFSET -3.249400 8.794197 -1.372250
									CHANNELS 3 Xrotation Yrotation Zrotation
									JOINT RightArm
									{
										OFFSET -11.953299 -2.279007 -0.146200
										CHANNELS 3 Xrotation Yrotation Zrotation
										JOINT RightForeArm
										{
											OFFSET -18.448900 0.000000 0.000000
											CHANNELS 3 Xrotation Yrotation Zrotation
											JOINT RightHand
											{
												OFFSET -29.527802 0.000000 0.000000
												CHANNELS 3 Xrotation Yrotation Zrotation
												End Site
												{
													OFFSET 0 0 0
												}
											}
										}
									}
								}
							}
						}
					}
				}
			}
		}
	}
}
MOTION
Frames: 4
Frame Time: 0.03333333
0.381245 79.622345 -12.608452 0.000000 0.000000 0.000000 3.881766 -63.170056 3.726313 -47.375384 15.393389 48.834333 33.114246 -16.685382 -0.849475 17.957078 13.036078 -34.557670 -4.724593 -7.181570 -7.771816 0.000000 0.000000 0.000000 3.213184 -62.309562 3.065205 -38.205240 5.459089 -18.424784 49.436616 18.396073 -10.198439 -10.241092 -9.829811 36.860294 7.437956 12.201848 -16.894154 0.000000 0.000000 0.000000 4.830399 -55.674286 3.252804 1.606840 1.820741 2.808442 3.935689 0.220776 -2.298003 0.141191 -0.507564 0.107831 0.000000 0.000000 0.000000 7.091981 2.839825 -1.339420 -22.789237 26.653321 17.672515 15.974127 -16.610680 -14.103199 0.000000 0.000000 0.000000 6.492187 0.180567 -1.370372 2.606051 -2.195906 -6.601450 2.072708 -6.507724 -4.063542 -56.502357 -11.746026 -13.024927 7.063412 -17.773824 9.174792 0.000000 0.000000 0.000000 4.557989 -0.237625 -1.469233 -3.112408 12.429162 2.756999 14.458209 1.162196 8.445917 8.626996 68.030993 7.087987 140.470176 80.321447 -140.738684 0.000000 0.000000 0.000000 
0.391115 79.625114 -12.476574 0.000000 0.000000 0.000000 4.564364 -62.975143 4.041798 -46.393701 15.275368 48.859646 33.793993 -17.440654 -0.652163 16.938183 13.320759 -34.303570 -4.852694 -7.240649 -7.498971 0.000000 0.000000 0.000000 3.155116 -61.773966 2.943343 -38.592587 5.630056 -18.337577 48.832731 18.471285 -9.931808 -9.885676 -9.749673 37.027118 6.934298 12.440306 -16.979710 0.000000 0.000000 0.000000 4.938466 -55.760797 3.468530 1.226671 1.743189 2.879698 3.486321 0.021161 -2.327468 0.058601 -0.464428 0.112790 0.000000 0.000000 0.000000 6.761314 2.435214 -1.099494 -21.750304 27.299096 17.525731 16.005473 -16.949574 -16.014698 0.000000 0.000000 0.000000 5.764682 0.047844 -1.432880 2.585689 -1.372893 -8.380570 3.030911 -5.542936 -3.429059 -55.958603 -11.888497 -14.417337 8.226023 -18.074072 9.798285 0.000000 0.000000 0.000000 4.146884 -0.475133 -1.605799 -3.171432 12.310153 2.577826 15.112789 -0.796418 7.949305 6.666464 67.748558 9.674819 143.204109 80.273260 -143.710691 0.000000 0.000000 0.000000 
0.269790 79.863258 -12.417187 0.000000 0.000000 0.000000 4.953917 -63.119288 4.191965 -45.190960 15.218397 48.720600 34.269808 -17.834232 -0.390042 16.339711 13.946614 -34.770352 -4.896468 -7.180736 -7.804923 0.000000 0.000000 0.000000 3.330471 -61.768850 2.970758 -39.191868 5.623953 -18.233402 47.954676 18.477198 -9.531572 -9.265304 -9.232011 36.647038 7.481830 12.612702 -17.191000 0.000000 0.000000 0.000000 4.627356 -56.612262 3.213469 0.802925 1.777717 3.127108 3.167589 -0.245699 -2.264588 0.082010 -0.509269 0.092088 0.000000 0.000000 0.000000 6.407625 1.919664 -0.799853 -20.369936 27.982833 17.599514 13.756173 -14.609553 -20.231731 0.000000 0.000000 0.000000 4.876858 -0.203714 -1.490528 2.412072 -0.984038 -10.884282 3.560906 -4.899516 -1.658639 -53.378540 -11.207272 -16.634388 8.871473 -19.409135 9.952025 0.000000 0.000000 0.000000 3.790842 -0.744944 -1.610303 -3.299365 11.083669 2.467320 14.138912 -1.337778 7.651508 7.973906 67.777914 9.812910 139.104165 81.876114 -139.519659 0.000000 0.000000 0.000000 
0.036771 80.396225 -12.343651 0.000000 0.000000 0.000000 4.963061 -63.600932 4.156538 -43.471965 15.357586 48.057973 33.786951 -17.629927 -0.201260 16.138451 14.942123 -35.591166 -5.406405 -7.014392 -8.354080 0.000000 0.000000 0.000000 3.496851 -62.203619 3.047090 -39.628624 5.383552 -18.193752 46.863383 18.248379 -9.064582 -8.678630 -8.582758 35.820306 8.868733 12.696999 -17.477073 0.000000 0.000000 0.000000 3.959771 -57.885020 2.593768 0.538801 1.894930 3.444903 3.025359 -0.585011 -2.088266 0.172182 -0.559829 0.094750 0.000000 0.000000 0.000000 5.998521 1.344388 -0.515465 -18.736008 28.512205 17.670963 10.022468 -10.074307 -25.518051 0.000000 0.000000 0.000000 4.086200 -0.550675 -1.565310 2.155528 -1.308628 -13.731549 3.939408 -4.759347 0.811401 -48.992824 -10.361597 -19.573830 9.429410 -23.005611 9.988677 0.000000 0.000000 0.000000 3.541440 -1.019577 -1.486825 -3.502334 8.973278 2.732732 12.373536 -0.317472 7.166222 11.068776 67.877996 9.092402 119.642457 84.657490 -119.597145 0.000000 0.000000 0.000000 
